<svg width="44" height="29" viewBox="0 0 44 29" fill="none" xmlns="http://www.w3.org/2000/svg">
<path fill-rule="evenodd" clip-rule="evenodd" d="M8.23167 7.06082C8.93792 6.90345 9.65985 6.82422 10.384 6.82461C16.1187 6.82461 20.7662 11.7218 20.7662 17.7603C20.7662 23.8006 16.1187 28.6978 10.384 28.6978C4.64933 28.6978 0 23.8024 0 17.7603C0 17.5836 0.00366667 17.4051 0.0128333 17.2284H0C0 8.11382 7.04 0.697754 15.6933 0.697754V4.36882C12.8865 4.36882 10.2978 5.37494 8.23167 7.06082ZM31.4673 7.06082C32.1603 6.90575 32.879 6.82461 33.616 6.82461C39.3507 6.82461 44 11.7218 44 17.7603C44 23.8006 39.3507 28.6978 33.616 28.6978C27.8813 28.6978 23.2338 23.8024 23.2338 17.7603C23.2338 17.5836 23.2375 17.4051 23.2467 17.2284H23.2338C23.2338 8.11382 30.2738 0.697754 38.9272 0.697754V4.36882C36.1185 4.36882 33.5335 5.37494 31.4673 7.06082Z" fill="#FF6B6B"/>
</svg>
